# xmcd
#
# Track frame offsets: 
#        150
#        13500
#        37973
#        56432
#        80432
#        90842
#        118307
#        137314
#        157522
#        175330
#        200754
#        213201
#        234868
#        251237
#        273606
#        282019
#        307740
#        319907
#
# Disc length: 4774 seconds
#
# Revision: 0
# Processed by: cddbd v1.5.2PL0 Copyright (c) Steve Scherf et al.
# Submitted via: ExactAudioCopy v1.3
#
DISCID=e312a412
DTITLE=Various Artist - Akella Presents - vol.208 - Blues-Rock Instru
DTITLE=mental  CD1
DYEAR=2019
DGENRE=Blues
TTITLE0=Errorhead - Find It
TTITLE1=Rocky Whelan - Lonesome Road Blues
TTITLE2=Da JuJu Boys - Toome
TTITLE3=Coyote Kings - Walkin' in the Fog
TTITLE4=Red Rooster - Red One
TTITLE5=Rehab All Stars - Deja Blues
TTITLE6=Magic Red - Why Cry
TTITLE7=Alistair Greene - Grateful Swagger
TTITLE8=Jock Rockenbach - After one
TTITLE9=Tim Turner - Little Wing
TTITLE10=Titanium Blue - Elemental
TTITLE11=Gregg Wright - Blues For The 21st Century
TTITLE12=Rocky Athas - Think About It
TTITLE13=Innes Sibun - Esma
TTITLE14=Joe Lewis Band - Good News Boogie
TTITLE15=Austin Young - Miss You Moore
TTITLE16=Savoy Brown - Looking Out
TTITLE17=Bugs Henderson - Blues In Reverse
EXTD=
EXTT0=
EXTT1=
EXTT2=
EXTT3=
EXTT4=
EXTT5=
EXTT6=
EXTT7=
EXTT8=
EXTT9=
EXTT10=
EXTT11=
EXTT12=
EXTT13=
EXTT14=
EXTT15=
EXTT16=
EXTT17=
PLAYORDER=
